<svg id="visual" viewBox="0 0 900 600" width="900" height="600" xmlns="http://www.w3.org/2000/svg" xmlns:xlink="http://www.w3.org/1999/xlink" version="1.1"><path d="M0 73L82 109L164 115L245 91L327 109L409 55L491 103L573 103L655 55L736 61L818 115L900 55L900 0L818 0L736 0L655 0L573 0L491 0L409 0L327 0L245 0L164 0L82 0L0 0Z" fill="#7c89bd"></path><path d="M0 151L82 145L164 187L245 169L327 205L409 133L491 193L573 169L655 121L736 163L818 181L900 133L900 53L818 113L736 59L655 53L573 101L491 101L409 53L327 107L245 89L164 113L82 107L0 71Z" fill="#be94bf"></path><path d="M0 289L82 259L164 265L245 367L327 349L409 355L491 385L573 301L655 295L736 331L818 265L900 241L900 131L818 179L736 161L655 119L573 167L491 191L409 131L327 203L245 167L164 185L82 143L0 149Z" fill="#e9a6b5"></path><path d="M0 475L82 457L164 463L245 469L327 553L409 529L491 463L573 445L655 499L736 535L818 451L900 439L900 239L818 263L736 329L655 293L573 299L491 383L409 353L327 347L245 365L164 263L82 257L0 287Z" fill="#fdc3af"></path><path d="M0 601L82 601L164 601L245 601L327 601L409 601L491 601L573 601L655 601L736 601L818 601L900 601L900 437L818 449L736 533L655 497L573 443L491 461L409 527L327 551L245 467L164 461L82 455L0 473Z" fill="#fde5ba"></path></svg>