<svg id="visual" viewBox="0 0 600 900" width="600" height="900" xmlns="http://www.w3.org/2000/svg" xmlns:xlink="http://www.w3.org/1999/xlink" version="1.1"><path d="M0 109L55 163L109 172L164 136L218 163L273 82L327 154L382 154L436 82L491 91L545 172L600 82L600 0L545 0L491 0L436 0L382 0L327 0L273 0L218 0L164 0L109 0L55 0L0 0Z" fill="#7c89bd"></path><path d="M0 226L55 217L109 280L164 253L218 307L273 199L327 289L382 253L436 181L491 244L545 271L600 199L600 80L545 170L491 89L436 80L382 152L327 152L273 80L218 161L164 134L109 170L55 161L0 107Z" fill="#be94bf"></path><path d="M0 433L55 388L109 397L164 550L218 523L273 532L327 577L382 451L436 442L491 496L545 397L600 361L600 197L545 269L491 242L436 179L382 251L327 287L273 197L218 305L164 251L109 278L55 215L0 224Z" fill="#e9a6b5"></path><path d="M0 712L55 685L109 694L164 703L218 829L273 793L327 694L382 667L436 748L491 802L545 676L600 658L600 359L545 395L491 494L436 440L382 449L327 575L273 530L218 521L164 548L109 395L55 386L0 431Z" fill="#fdc3af"></path><path d="M0 901L55 901L109 901L164 901L218 901L273 901L327 901L382 901L436 901L491 901L545 901L600 901L600 656L545 674L491 800L436 746L382 665L327 692L273 791L218 827L164 701L109 692L55 683L0 710Z" fill="#fde5ba"></path></svg>